<?xml version="1.0" encoding="UTF-8" standalone="no"?>
<!-- Created with Inkscape (http://www.inkscape.org/) -->

<svg
   version="1.1"
   id="svg48"
   width="1620"
   height="2160"
   viewBox="0 0 1620 2160"
   xmlns="http://www.w3.org/2000/svg"
   xmlns:svg="http://www.w3.org/2000/svg">
  <defs
     id="defs52" />
  <g
     id="g54">
    <path
       style="fill:#000000"
       d="m 560.5,1844.5047 c -7.7,-1.2753 -16.7,-2.7602 -20,-3.2997 -7.59821,-1.2422 -30.65343,-10.0127 -40.49029,-15.4032 -22.56419,-12.3647 -34.89546,-21.6922 -54.5528,-41.2642 -22.17724,-22.0809 -32.44974,-36.6732 -44.34191,-62.9884 -4.98325,-11.0271 -10.23561,-23.3587 -11.67191,-27.4036 -4.54255,-12.7926 -8.34322,-29.9375 -9.42111,-42.4987 -2.28237,-26.5975 -1.72511,-24.3498 -6.91525,-27.892 -2.5337,-1.7293 -12.64163,-11.044 -22.46207,-20.6995 -16.94974,-16.665 -30.22916,-32.4003 -34.63998,-41.0462 -1.09224,-2.141 -3.13865,-5.5914 -4.54758,-7.6676 -9.38187,-13.8249 -17.53597,-40.2667 -22.92547,-74.3416 -2.55988,-16.1848 -2.9757,-38.1694 -0.99058,-52.3719 l 1.78925,-12.8012 -9.34802,-8.6635 c -10.11177,-9.3712 -20.64092,-21.195 -22.96748,-25.7915 -0.79951,-1.5795 -2.64599,-4.6719 -4.10329,-6.8719 -9.04453,-13.654 -17.9601,-39.2673 -22.10333,-63.5 -2.11833,-12.3896 -2.30044,-16.2966 -2.21402,-47.5 0.0998,-36.0445 0.94371,-47.1933 5.97977,-79 5.68869,-35.9286 7.77025,-47.3904 10.02797,-55.2172 3.95341,-13.7052 12.21694,-35.1976 17.07738,-44.4159 l 4.59093,-8.7072 -5.81269,-6.5799 c -3.19697,-3.6189 -6.15724,-6.5798 -6.57838,-6.5798 -1.84819,0 -17.88665,-19.6198 -25.65693,-31.386 -16.02252,-24.2622 -28.74786,-50.23875 -34.10245,-69.614 -4.36249,-15.78544 -9.11999,-49.61967 -9.11952,-64.85595 3.8e-4,-12.53572 3.27031,-29.7867 7.15162,-37.72948 1.98537,-4.0629 4.09673,-7.03134 5.1447,-7.23317 0.97759,-0.18826 5.02328,1.668 8.99043,4.12502 11.65063,7.21572 34.77779,19.35875 42.16737,22.14018 3.76069,1.41552 9.1892,3.91911 12.06336,5.56354 2.87415,1.64442 5.5176,2.98986 5.87433,2.98986 0.35673,0 -0.20579,-1.6875 -1.25005,-3.75 -5.09841,-10.06985 -14.61019,-34.84009 -17.16314,-44.69563 C 240.64597,809.2461 235.25554,778.23933 232.58394,749 c -0.87944,-9.625 -2.08778,-22.09298 -2.68521,-27.70663 -1.70895,-16.05791 -1.29491,-36.96601 1.03555,-52.29337 1.12894,-7.425 2.06718,-16.875 2.08497,-21 0.0485,-11.24238 1.6688,-25.5727 3.84828,-34.03496 1.88837,-7.33195 4.86688,-25.44909 7.10873,-43.23961 1.48311,-11.76941 8.84153,-36.5865 19.04324,-64.22543 6.7349,-18.24649 10.10648,-28.96133 16.51988,-52.5 3.07201,-11.275 8.25721,-28.375 11.52266,-38 12.45677,-36.71671 13.66285,-41.321 21.3487,-81.5 3.49905,-18.29182 6.81305,-48.22534 8.54939,-77.22179 0.7611,-12.71021 0.62802,-16.1076 -0.95101,-24.27821 -1.00977,-5.225 -2.15222,-12.98155 -2.53878,-17.23678 -0.6212,-6.83816 -0.49932,-7.81487 1.04933,-8.40914 0.9637,-0.36981 2.45913,-0.22644 3.32318,0.31859 2.06318,1.30142 4.7662,12.03824 6.62798,26.32733 0.82411,6.325 2.20852,14.14178 3.07646,17.37062 0.86794,3.22884 2.8548,11.77884 4.41525,19 3.90429,18.06758 11.05968,40.48377 16.47292,51.60588 3.46792,7.12522 4.68188,8.85409 5.20221,7.40876 0.37328,-1.03689 1.52394,-4.08109 2.55702,-6.76489 4.88646,-12.69442 11.89709,-35.0576 13.67454,-43.62037 4.35349,-20.97277 5.21999,-31.46246 5.69453,-68.93726 0.26058,-20.57822 0.79108,-32.81758 1.45102,-33.47752 2.07933,-2.07933 4.30771,1.07566 7.74118,10.96008 4.85929,13.98915 8.87076,29.55417 11.21215,43.50462 1.10243,6.5685 3.55487,18.13188 5.44987,25.69641 1.895,7.56452 4.14051,17.45965 4.99003,21.98918 3.2355,17.25128 13.03546,55.15971 16.61345,64.26449 2.05331,5.225 6.09995,15.575 8.99254,23 6.13958,15.75974 7.73419,19.07813 17.58552,36.59562 9.18681,16.33586 13.37557,22.06793 30.90048,42.28544 7.7,8.88306 17.44987,20.6681 21.66638,26.18897 9.67578,12.66894 17.27821,20.66698 37.33362,39.27631 22.02325,20.43528 46.5745,38.6517 79,58.61604 8.25,5.07952 17.25,10.69441 20,12.47754 10.72113,6.95169 20.38726,12.46898 29.31614,16.73326 l 9.31615,4.44922 5.68385,-1.26652 C 757.826,585.53299 754.09529,586 809.48765,586 c 56.24888,0 53.0456,-0.3978 123.74074,15.36676 l 5.72838,1.2774 11.27162,-5.57629 c 19.00517,-9.40224 66.95981,-39.80606 93.02381,-58.97825 24.3888,-17.94 55.4911,-47.25222 68.0034,-64.08962 3.8828,-5.225 9.3513,-11.99821 12.152,-15.05158 7.6996,-8.39392 25.6946,-29.73549 30.3114,-35.94842 5.1118,-6.87912 17.0423,-27.60757 22.7346,-39.5 2.3694,-4.95 7.9447,-18.45 12.3897,-30 8.0106,-20.81486 14.0393,-42.55597 20.6585,-74.5 1.3106,-6.325 3.9448,-18.025 5.8536,-26 1.9089,-7.975 4.0006,-18.05317 4.6482,-22.39594 1.5753,-10.56326 6.5248,-30.62229 8.9876,-36.42402 1.0927,-2.57402 2.7835,-7.33376 3.7575,-10.57719 1.8139,-6.04095 4.3384,-8.91575 6.1971,-7.05709 0.6084,0.60844 1.1841,14.12556 1.4683,34.47753 0.5014,35.89743 1.8368,51.39824 6.0104,69.76506 2.1947,9.65819 10.9554,36.71228 15.0856,46.58599 l 1.6206,3.87434 4.8841,-10.37434 c 4.6381,-9.85194 9.787,-25.35517 13.9072,-41.87434 4.0937,-16.41258 9.0181,-39.95067 10.0421,-48 1.4969,-11.76649 4.2259,-22.1105 6.15,-23.31112 0.8877,-0.55394 2.4025,-0.70461 3.3662,-0.3348 1.547,0.59362 1.6715,1.57849 1.0634,8.40914 -0.3788,4.25523 -1.5413,11.89975 -2.5832,16.98783 -1.686,8.23334 -1.7874,11.0258 -0.9221,25.38353 0.5348,8.87286 1.4099,20.00989 1.9447,24.74895 0.5348,4.73906 1.4436,14.01117 2.0196,20.6047 2.7944,31.98861 14.2245,81.12428 26.8089,115.24533 2.6624,7.21884 5.3433,16.39121 16.5915,56.76644 2.8269,10.1472 4.4339,14.88224 10.86,32 9.7927,26.08566 17.2906,51.65499 18.7674,64 1.8879,15.78322 5.0101,34.7791 6.903,42 2.6309,10.03599 2.9262,12.35652 3.6267,28.5 0.3461,7.975 1.4837,20.35 2.528,27.5 2.1067,14.42423 2.527,37.44613 0.939,51.43228 -0.5351,4.71224 -1.6772,16.66772 -2.5381,26.56772 -2.3377,26.88347 -7.1262,55.85746 -13.6348,82.5 -3.7063,15.17172 -9.1665,30.22462 -18.2274,50.25 -1.4309,3.1625 -2.343,5.75 -2.0268,5.75 0.3162,0 3.3932,-1.57607 6.8378,-3.50237 3.4445,-1.9263 8.7616,-4.3621 11.8157,-5.41287 6.2976,-2.1667 19.7864,-9.18952 36.9455,-19.23544 6.4346,-3.76712 12.235,-6.84932 12.8898,-6.84932 3.1083,0 8.2408,11.02279 10.6346,22.8394 4.3109,21.28052 -0.1094,66.90771 -9.1583,94.53135 -6.1927,18.90464 -17.5776,40.78575 -33.6586,64.68945 -7.5777,11.264 -12.7508,17.5592 -22.8509,27.8073 -7.1806,7.2858 -13.0557,13.6924 -13.0557,14.2368 0,0.5445 1.8049,4.2785 4.0108,8.2978 4.5165,8.2294 12.6929,29.2815 16.9272,43.5832 1.5493,5.2331 3.9906,16.7147 5.4251,25.5147 10.2928,63.141 10.8787,68.9615 11.022,109.5 0.1045,29.554 -0.096,33.8144 -2.2149,47 -5.0966,31.7189 -15.9272,58.446 -32.266,79.6242 -4.5356,5.8789 -23.5079,24.3758 -25.0024,24.3758 -1.3202,0 -1.1083,4.7662 0.7005,15.7608 2.3558,14.3187 0.7097,47.4325 -3.094,62.2392 -0.7771,3.025 -2.3574,10.45 -3.5117,16.5 -4.5074,23.6234 -15.484,47.3028 -31.985,69 -7.519,9.8867 -37.1574,39.6421 -46.2616,46.4442 -3.1625,2.3629 -5.75,4.5862 -5.75,4.9408 0,0.3546 -0.7019,8.6808 -1.5599,18.5025 -2.2988,26.3171 -7.3046,44.2143 -20.3098,72.6125 -9.8343,21.4746 -11.1686,23.8337 -21.4915,38 -10.4487,14.3389 -34.2252,38.8027 -47.5996,48.9754 -10.4,7.9104 -31.9101,20.9226 -40.3094,24.3844 -22.6139,9.3207 -25.4842,10.1465 -45.7298,13.1568 -5.775,0.8587 -13.3459,2.0341 -16.8243,2.6121 -6.7771,1.1261 -10.6899,0.6554 -11.3903,-1.3701 -0.5977,-1.7286 0.9443,-39.6216 2.1947,-53.9307 1.6358,-18.72 1.2369,-107.9657 -0.5445,-121.8279 -0.8128,-6.325 -1.8905,-26.7347 -2.3949,-45.3548 -0.5043,-18.6201 -1.1101,-34.048 -1.3462,-34.2841 -0.2362,-0.2361 -3.9765,2.1967 -8.3119,5.4062 -10.56,7.8176 -26.97236,18.7444 -37.3826,24.888 -4.675,2.759 -13.436,8.2422 -19.4689,12.1849 -6.03289,3.9427 -13.90789,8.5723 -17.5,10.288 -6.6254,3.1646 -14.47334,7.0534 -28.0311,13.8902 -4.125,2.0801 -10.65,4.6821 -14.5,5.7821 -3.85,1.1001 -9.7,2.9062 -13,4.0136 -17.59564,5.9049 -24.62622,7.3204 -54,10.8722 -19.77802,2.3914 -46.44214,2.3985 -65,0.017 -7.7,-0.9881 -17.6,-2.2411 -22,-2.7844 -7.97998,-0.9856 -20.63252,-4.1668 -32,-8.0457 -3.3,-1.1261 -9.15,-2.9532 -13,-4.0603 -3.85,-1.107 -10.375,-3.7147 -14.5,-5.7948 -13.55776,-6.8368 -21.4057,-10.7256 -28.0311,-13.8902 -3.59211,-1.7157 -11.46711,-6.3453 -17.5,-10.288 -6.0329,-3.9427 -14.7939,-9.4259 -19.4689,-12.1849 -10.13533,-5.9814 -26.44135,-16.8157 -37.5,-24.9163 l -8,-5.8601 -0.6193,7.3106 c -0.34061,4.0208 -0.67811,16.6783 -0.75,28.1279 -0.0849,13.5213 -0.85628,27.3653 -2.20095,39.5 -1.91577,17.2885 -2.03458,22.824 -1.59222,74.1826 0.26291,30.525 0.93419,62.025 1.49173,70 1.77745,25.4246 1.82086,36.9772 0.14293,38.0383 -2.11115,1.3352 -5.69975,1.0789 -21.47219,-1.5336 z m 4.03102,-38.7547 c -0.39965,-2.8875 -1.17025,-8.175 -1.71244,-11.75 -1.35548,-8.9376 -1.96134,-111.8988 -0.73554,-125 0.54034,-5.775 1.41513,-18.375 1.94399,-28 2.15961,-39.3042 3.74883,-56.4674 6.75939,-73 2.60216,-14.2898 7.66,-23.5903 11.58321,-21.2997 0.7533,0.4398 5.08362,5.2997 9.62292,10.7997 11.91537,14.4371 18.9632,21.4584 32.50745,32.385 17.07461,13.7747 19.44582,15.3612 44.53501,29.797 32.57932,18.7454 49.17729,24.9777 81.96499,30.7767 8.60938,1.5227 43.3913,3.1949 63,3.0288 49.27313,-0.4174 71.57169,-3.8704 101.43333,-15.7074 5.51668,-2.1868 11.8385,-4.8976 14.04849,-6.0239 8.78695,-4.4785 47.24214,-27.1578 51.00785,-30.0823 26.43163,-20.5275 32.03243,-25.7332 46.98893,-43.6739 4.8144,-5.775 9.3376,-10.8382 10.0515,-11.2516 2.2903,-1.3261 3.9028,0.1353 7.1872,6.5136 5.4742,10.6312 8.0103,30.5454 11.2374,88.238 0.523,9.35 1.3912,21.725 1.9293,27.5 1.2791,13.7273 0.7021,113.992 -0.7164,124.5 -0.594,4.4 -1.3859,10.1375 -1.7597,12.75 -0.5617,3.9249 -0.4091,4.75 0.8782,4.75 0.8568,0 8.2305,-2.0545 16.3859,-4.5655 12.7416,-3.923 17.9939,-6.26 37.328,-16.6087 32.3231,-17.3011 44.1525,-25.2654 59.8741,-40.3115 17.9515,-17.1801 29.3337,-32.7346 39.9237,-54.5584 14.3404,-29.5526 17.1848,-42.9397 18.9006,-88.9559 0.936,-25.1034 0.8118,-29.9038 -1.242,-48 -0.8426,-7.425 -2.1935,-26.9218 -3.0019,-43.3262 -1.2731,-25.8316 -1.8809,-31.7915 -4.5388,-44.5 -6.6277,-31.6898 -6.8349,-33.6115 -3.799,-35.2362 2.9394,-1.5732 4.16,-0.052 7.2698,9.0624 2.6121,7.6557 3.4257,11.4256 10.574,49 2.2497,11.825 4.9617,25.325 6.0268,30 3.402,14.9322 5.8556,30.1361 7.0201,43.5 0.6231,7.15 1.4388,16.3211 1.8127,20.3802 l 0.6799,7.3802 5.5,-4.2654 c 8.5943,-6.6651 15.8136,-13.956 20.2939,-20.495 2.261,-3.3 5.5556,-7.8955 7.3213,-10.2123 7.7393,-10.1548 26.4744,-49.9649 31.6663,-67.2877 5.0068,-16.7051 5.7185,-22.6305 5.7185,-47.6135 0,-15.8425 -0.4931,-26.7079 -1.5268,-33.6431 -2.9324,-19.6747 -6.5722,-41.294 -8.0379,-47.7434 -2.1294,-9.3702 -16.9099,-55.7814 -23.9316,-75.1463 -2.915,-8.0389 -2.8743,-12.1138 0.1323,-13.2675 1.65,-0.6332 5.364,1.8812 5.364,3.6314 0,0.4992 3.8684,10.6669 8.5965,22.595 11.7071,29.535 23.2106,62.8638 26.9864,78.1874 1.0164,4.125 1.962,7.6735 2.1013,7.8855 0.8733,1.3287 6.116,-4.1579 11.1288,-11.6465 17.6345,-26.3444 24.2572,-42.8272 28.6231,-71.239 0.8029,-5.225 2.3367,-15.125 3.4083,-22 1.7029,-10.9251 1.8376,-14.7049 1.0688,-30 -1.1098,-22.0778 -3.554,-49.6693 -5.4923,-62 -2.7901,-17.749 -19.3703,-83.464 -23.7167,-94 -0.3404,-0.825 -1.5702,-4.425 -2.733,-8 -2.7834,-8.5578 -10.6761,-23.3178 -18.4483,-34.5 -15.0096,-21.5949 -37.0732,-61.09677 -43.1649,-77.28111 -3.4987,-9.29522 -7.6168,-17.05744 -14.0064,-26.40126 -12.0637,-17.64108 -37.5352,-63.78998 -41.8469,-75.81763 -0.69,-1.925 -4.4106,-9.19606 -8.2678,-16.15791 -3.8573,-6.96185 -8.3766,-16.18685 -10.043,-20.5 -4.1991,-10.8685 -11.1939,-32.8779 -11.1939,-35.2218 0,-1.06583 -1.6007,-8.16642 -3.5571,-15.77909 -3.3412,-13.00115 -3.6097,-15.23712 -4.4237,-36.8412 -1.9867,-52.72618 -0.3238,-94.85921 4.4794,-113.5 0.7795,-3.025 2.8151,-12.925 4.5235,-22 1.7084,-9.075 4.6688,-22.35 6.5787,-29.5 1.9098,-7.15 4.3798,-17.05 5.4888,-22 3.5097,-15.66575 5.8987,-24.56971 10.8664,-40.5 2.6585,-8.525 5.8154,-18.875 7.0155,-23 3.8118,-13.10282 9.0484,-24.13511 17.6331,-37.14857 C 1255.0083,444.56454 1264.7925,437 1275.748,437 c 4.302,0 11.6072,4.89805 12.9763,8.70045 0.5543,1.53975 2.4028,6.39955 4.1078,10.79955 13.843,35.7258 20.6269,65.34391 23.1334,101 1.6238,23.09852 1.4056,29.22561 -1.2258,34.42707 -1.2318,2.43489 -2.6897,4.56507 -3.2397,4.73374 -2.7707,0.84972 -3.6071,-1.62169 -3.9762,-11.74973 -0.3112,-8.53938 -1.1139,-12.89619 -4.4648,-24.23415 -2.2469,-7.60269 -6.1447,-18.85269 -8.6618,-25 -2.5171,-6.14731 -8.077,-21.30193 -12.3554,-33.67693 -9.587,-27.72987 -9.6626,-27.91725 -11.5448,-28.63951 -2.7005,-1.03631 -6.9371,1.55907 -9.6483,5.91073 -5.2107,8.36341 -7.843,14.76645 -14.3223,34.83855 -7.2454,22.44542 -9.9348,30.45221 -15.2459,45.39023 -6.859,19.2912 -7.9801,23.06538 -9.2084,31 -0.6812,4.4 -2.2951,13.4 -3.5866,20 -1.2915,6.6 -3.5403,22.8 -4.9973,36 -1.4571,13.2 -3.5132,28.5 -4.5691,34 -3.9238,20.43732 -1.9057,89.12818 2.991,101.80774 0.5964,1.54425 2.2292,7.39425 3.6286,13 3.046,12.20195 8.5154,29.37855 12.6389,39.69226 1.6492,4.125 4.4897,11.55 6.3122,16.5 4.4392,12.05695 14.0932,33.04351 20.0105,43.5 2.6455,4.675 8.9218,16.15 13.9472,25.5 5.0255,9.35 14.7115,26.225 21.5245,37.5 6.8129,11.275 15.8695,27.09587 20.1258,35.15748 4.2563,8.06162 10.4126,18.86162 13.6806,24.00002 3.268,5.1384 8.2876,13.9623 11.1547,19.6086 l 5.2129,10.2662 2.8314,-2.0162 c 3.7521,-2.6717 20.2908,-20.9059 23.3269,-25.7181 1.3178,-2.0889 6.7219,-11.673 12.0091,-21.298 9.355,-17.0302 19.3079,-41.02449 23.1129,-55.72011 2.0711,-7.99881 5.5765,-29.93375 5.5582,-34.77989 -0.026,-6.90375 0.087,-6.87995 -17.0593,-3.60357 -8.4839,1.62117 -19.2502,3.47553 -23.9252,4.1208 -4.675,0.64528 -12.325,1.98926 -17,2.98662 -12.7145,2.71252 -21.9435,4.02525 -27.25,3.87605 l -4.75,-0.13355 v -4.32506 c 0,-4.77176 3.7884,-16.44348 9.4918,-29.24312 5.4712,-12.27869 22.2978,-73.32549 28.0013,-101.58889 4.9447,-24.50275 7.8203,-49.77969 7.9168,-69.58928 0.1645,-33.76604 -3.5873,-92.8853 -7.9961,-126 -2.9043,-21.81469 -10.0122,-46.84135 -22.0199,-77.5314 -3.6515,-9.33273 -8.3355,-22.1436 -10.409,-28.4686 -8.3754,-25.54882 -17.2811,-45.69318 -31.2444,-70.67369 -3.8874,-6.9546 -4.2338,-7.27133 -11.3423,-10.37072 -6.8815,-3.00036 -7.9072,-3.17189 -16.6739,-2.78846 l -9.3414,0.40856 -16.4415,10.94645 c -16.1574,10.75736 -24.4748,17.32328 -38.5047,30.3963 -3.8848,3.61986 -11.7267,9.95656 -17.4265,14.08156 -19.7189,14.2708 -27.5358,20.06448 -33.5102,24.83691 -3.3,2.63609 -8.25,6.30775 -11,8.15925 -2.75,1.8515 -8.15,6.12564 -12,9.4981 -3.85,3.37245 -14.875,12.23368 -24.5,19.69161 -9.625,7.45793 -21.4713,17.10458 -26.3252,21.437 -4.8539,4.33242 -10.1693,8.62149 -11.8122,9.53126 -1.6428,0.90977 -5.5525,3.88558 -8.6882,6.6129 -21.0376,18.29789 -64.7455,45.67932 -93.8129,58.77034 -15.30882,6.8946 -14.69,5.57071 -7.39909,15.82951 7.00612,9.85808 18.25616,29.92789 27.26106,48.63312 15.13773,31.44449 29.43263,81.88977 24.79043,87.48321 -2.9629,3.57015 -5.78958,1.23869 -7.52683,-6.20821 -0.77538,-3.32377 -2.5199,-8.55339 -3.87671,-11.62138 -3.74597,-8.47029 -17.38096,-27.96632 -29.04696,-41.53287 -5.74136,-6.67671 -13.04868,-15.84775 -16.23849,-20.38011 -12.12295,-17.22529 -15.95795,-21.71027 -32.58012,-38.10196 -11.39575,-11.23775 -18.49564,-17.46026 -21.2878,-18.65712 -2.30417,-0.98768 -7.40124,-4.08758 -11.32681,-6.88867 C 878.2046,614.2918 874.76045,612 874.47651,612 c -0.28394,0 -2.29837,-1.125 -4.47651,-2.5 -2.17814,-1.375 -4.40663,-2.5 -4.95219,-2.5 -0.54557,0 -1.71236,2.5875 -2.59287,5.75 -0.88051,3.1625 -3.12551,10.475 -4.98888,16.25 -3.25795,10.09709 -20.6137,87.21725 -21.9422,97.5 -0.35529,2.75 -1.97886,11.75 -3.60793,20 -5.21929,26.43164 -5.84917,29.81789 -7.4276,39.93087 -0.8525,5.46198 -2.68869,15.55464 -4.08042,22.42815 -1.39172,6.8735 -2.78347,16.35461 -3.09277,21.06913 -0.3093,4.71452 -1.24068,10.05052 -2.06975,11.85779 -1.42699,3.1107 -1.34948,7.68031 0.24534,14.46337 0.77205,3.28367 -0.78767,4.97347 -4.89115,5.29906 -4.31101,0.34206 -7.03132,-1.83557 -6.18038,-4.94745 1.6333,-5.97305 1.70698,-12.20832 0.17843,-15.10092 -0.87192,-1.65 -1.60016,-5.25 -1.61832,-8 -0.0182,-2.75 -1.11506,-11.075 -2.43757,-18.5 -1.32251,-7.425 -3.12019,-17.55 -3.99485,-22.5 -4.51453,-25.54926 -5.92464,-33.20402 -8.56591,-46.5 -1.58425,-7.975 -3.15296,-16.525 -3.48602,-19 -1.47547,-10.9644 -19.0672,-88.66431 -22.52741,-99.5 -2.1076,-6.6 -4.32985,-13.9125 -4.93832,-16.25 -0.60848,-2.3375 -1.54792,-4.25 -2.08765,-4.25 -0.53973,0 -2.76344,1.125 -4.94158,2.5 -2.17814,1.375 -4.1582,2.5 -4.40013,2.5 -0.24193,0 -3.73837,2.27584 -7.76987,5.05742 -4.0315,2.78158 -9.14894,5.86489 -11.37209,6.8518 -2.46107,1.09253 -10.41967,8.01281 -20.34715,17.69258 -14.9524,14.57929 -25.08108,26.58634 -36.01267,42.69123 -1.78936,2.63617 -7.96578,10.22027 -13.72537,16.85356 -18.07169,20.81306 -30.53904,41.2048 -33.42789,54.67507 -1.16432,5.42904 -3.71266,7.44584 -6.49282,5.13851 -4.03,-3.3446 1.63571,-29.45097 13.64915,-62.89234 7.36792,-20.50982 26.30745,-57.3382 37.81108,-73.52459 6.28073,-8.8374 6.29655,-8.87706 4.17102,-10.45714 -1.17349,-0.87236 -5.83479,-3.13884 -10.35844,-5.03663 C 636.07849,598.29014 587.51428,567.88354 566.3891,549.3587 563.0281,546.41141 559.61904,544 558.81341,544 c -0.80563,0 -2.55572,-1.17322 -3.8891,-2.60715 -4.38265,-4.71317 -20.15023,-17.8679 -36.42431,-30.3884 -8.8,-6.7703 -19.10655,-15.05347 -22.90344,-18.40704 C 491.79967,489.24383 486.0994,484.7 482.92931,482.5 479.75922,480.3 470.94077,473.81595 463.33275,468.091 445.03019,454.3185 436.25084,447.84192 432,444.97661 c -1.925,-1.29756 -6.12263,-4.75689 -9.32806,-7.6874 -3.20544,-2.93052 -7.70544,-6.28205 -10,-7.44784 -2.29457,-1.1658 -8.88646,-5.76953 -14.64864,-10.2305 C 380.38744,405.95752 367.65863,396.81385 364.28212,395.37308 362.51228,394.61789 357.94173,394 354.12534,394 c -5.49261,0 -8.26104,0.59679 -13.28212,2.86321 -3.48877,1.57477 -7.09786,3.71227 -8.02019,4.75 -0.92234,1.03773 -5.60341,9.30017 -10.40238,18.36097 -8.71834,16.46086 -19.07666,40.87325 -23.34776,55.02582 -1.24489,4.125 -4.21111,12.45 -6.59161,18.5 -16.42357,41.74027 -24.75112,69.98233 -27.4223,93 -4.54332,39.15005 -7.59737,88.99612 -7.50553,122.5 0.079,28.81461 4.07671,56.32507 14.0957,97 8.64528,35.09796 18.13423,67.50445 22.82651,77.95663 5.76367,12.83876 7.61759,18.48999 8.24507,25.13311 l 0.52798,5.58973 -4.87435,0.13901 c -5.50799,0.15708 -14.87777,-1.1486 -27.37436,-3.81463 -4.675,-0.99736 -12.325,-2.34134 -17,-2.98662 -4.675,-0.64527 -15.4002,-2.49139 -23.83377,-4.10247 -8.43357,-1.61109 -15.74607,-2.67443 -16.25,-2.36299 -1.34632,0.83208 -1.11987,8.09836 0.61411,19.70481 3.95135,26.44851 12.5862,50.43881 28.4801,79.12652 6.009,10.846 11.87511,20.9343 13.03581,22.4184 3.82213,4.8873 22.09492,24.1985 22.89729,24.1985 0.43215,0 3.16518,-4.6125 6.07341,-10.25 2.90822,-5.6375 7.85434,-14.3 10.99137,-19.25 3.13703,-4.95 8.76472,-14.85 12.50597,-22 3.74126,-7.15 12.72279,-22.9 19.95896,-35 13.90684,-23.2544 17.83359,-30.17538 25.8153,-45.5 2.72141,-5.225 5.71936,-10.625 6.66212,-12 5.83015,-8.50315 17.91419,-34.20854 25.85537,-55 2.20573,-5.775 4.91195,-12.75 6.01383,-15.5 3.17746,-7.93009 8.85461,-26.10678 11.55627,-37 1.36407,-5.5 2.99778,-11.35 3.63047,-13 0.63269,-1.65 2.01503,-9.94785 3.07187,-18.43967 2.55511,-20.53069 2.76963,-68.96808 0.35538,-80.24495 -0.86137,-4.02346 -2.17019,-12.94038 -2.90847,-19.81538 -2.94913,-27.46261 -4.74308,-41.08269 -7.04668,-53.5 -1.32643,-7.15 -2.91987,-16.15 -3.54098,-20 -1.37099,-8.49823 -3.25796,-14.75996 -9.94453,-33 -2.82272,-7.7 -6.87381,-19.625 -9.00242,-26.5 -11.37824,-36.74954 -19.24584,-54.62037 -25.11722,-57.05237 -5.61437,-2.32555 -5.81834,-1.98072 -14.81862,25.05237 -3.20451,9.625 -8.31468,23.575 -11.35595,31 -10.21979,24.9508 -15.9922,46.7292 -15.50045,58.48078 0.16687,3.98791 -0.21803,5.96728 -1.38785,7.1371 -2.11357,2.11358 -3.38173,1.21401 -5.81332,-4.12366 -2.354,-5.16735 -2.55236,-12.48881 -0.94807,-34.99422 2.14733,-30.12344 7.13994,-54.41087 16.95897,-82.5 11.5894,-33.15358 10.64928,-31.12746 16.01485,-34.5146 6.93148,-4.37565 15.47131,-2.64107 25.25261,5.12921 4.18848,3.32734 8.10459,8.08446 14.25,17.31033 4.66085,6.99714 8.47427,13.14566 8.47427,13.66338 0,0.51771 0.83238,2.50963 1.84974,4.42649 3.30265,6.2227 18.81617,55.83892 22.66397,72.48519 1.39846,6.05 4.75758,19.775 7.46471,30.5 2.70713,10.725 6.33833,27.12364 8.06935,36.44143 1.73101,9.31779 3.5222,17.92751 3.98042,19.13271 0.45821,1.2052 1.65182,8.65655 2.65246,16.55856 1.57431,12.43226 1.78233,20.75085 1.54451,61.76401 -0.27881,48.07958 -0.65084,54.11068 -4.1085,66.60329 -1.06559,3.85 -2.68991,10.825 -3.6096,15.5 -1.59518,8.10867 -7.50652,27.63814 -11.70148,38.65854 -1.07999,2.83719 -5.33035,11.32727 -9.44524,18.86683 -4.11489,7.53956 -8.31326,15.79321 -9.32969,18.34146 -3.24285,8.12991 -11.93798,26.19428 -14.00704,29.10001 -1.09925,1.54376 -6.02291,9.94525 -10.94147,18.66999 -4.91856,8.72475 -10.66168,18.30934 -12.76249,21.29911 -6.45512,9.1866 -13.88097,22.59659 -17.32404,31.28469 -7.66897,19.3515 -23.72103,48.42617 -41.09365,74.43197 -10.85298,16.2462 -17.15059,27.7904 -21.04051,38.5694 -3.84705,10.6603 -12.00239,38.4408 -15.21801,51.839 -1.37798,5.7415 -4.06786,16.964 -5.97753,24.939 -4.53432,18.9358 -6.25137,29.7219 -8.1188,51 -3.08263,35.1246 -3.64996,52.0088 -2.08881,62.1649 0.78922,5.1343 2.35049,15.2951 3.46948,22.5796 2.81992,18.3571 6.34384,31.5523 11.68104,43.7392 4.70561,10.7447 16.74824,30.8251 22.94912,38.2663 3.7292,4.4751 6.44206,5.4925 6.44206,2.416 0,-5.6411 14.91591,-50.5148 25.98218,-78.166 3.41178,-8.525 7.33675,-18.65 8.72216,-22.5 2.41106,-6.7002 4.71959,-10.5 6.37922,-10.5 0.42547,0 1.52588,0.7523 2.44535,1.6718 2.22511,2.2251 1.42962,6.9767 -2.94739,17.6056 -4.23686,10.2886 -7.97528,21.291 -10.09917,29.7226 -0.90053,3.575 -3.58498,12.3796 -5.96544,19.5657 -5.33701,16.1114 -7.4092,25.5796 -12.02285,54.9343 -3.42465,21.7896 -3.61193,24.243 -3.55874,46.6192 0.0774,32.5627 2.44775,43.5568 16.03664,74.3808 8.55021,19.3947 16.04214,33.257 24.32042,45 8.5653,12.1502 12.93979,16.9225 22.70762,24.7729 l 7.5,6.0277 0.7051,-8.4003 c 2.81772,-33.5692 3.16393,-35.8769 11.6871,-77.9003 2.17524,-10.725 5.38454,-27.15 7.13177,-36.5 1.74724,-9.35 4.25663,-20.3199 5.57641,-24.3776 1.31979,-4.0577 2.39962,-7.9255 2.39962,-8.5951 0,-1.9473 3.56485,-4.6315 5.27806,-3.9741 3.46928,1.3313 3.13272,5.3385 -2.77182,33.0026 -3.08409,14.4496 -3.58341,19.1013 -4.99135,46.5 -1.33197,25.9201 -2.30877,38.0145 -4.92211,60.9442 -0.50745,4.4524 1.15885,47.1348 2.38392,61.0641 1.87938,21.3691 6.45558,37.2289 16.90033,58.5717 8.13278,16.6185 15.87641,28.4507 26.74357,40.8642 21.02842,24.0205 35.9593,34.7865 81.8794,59.0396 8.99711,4.7519 17.61872,8.3299 28,11.62 19.49865,6.1796 18.94476,6.1922 18.03102,-0.4096 z m 150.5608,-257.6721 c -1.19634,-0.7573 -1.15502,-1.4249 0.27464,-4.4377 1.17563,-2.4775 4.16189,-5.2046 9.90818,-9.0484 16.64143,-11.1317 40.15666,-30.5715 59.55292,-49.2319 l 12.32756,-11.8599 2.47635,-12.5 c 2.80357,-14.1517 4.32837,-29.7772 4.35226,-44.6 l 0.0163,-10.1001 -6.25,-5.3657 c -3.4375,-2.9511 -10.525,-9.2348 -15.75,-13.9637 -5.225,-4.7289 -10.89342,-9.6943 -12.5965,-11.0342 -5.3514,-4.2104 -25.43951,-22.0739 -34.86274,-31.002 -4.97242,-4.7111 -11.96576,-10.5412 -15.54076,-12.9558 -7.03516,-4.7517 -23,-19.9207 -23,-21.8535 0,-0.6533 0.5625,-1.3551 1.25,-1.5597 1.89736,-0.5645 10.43803,-3.4472 18.13382,-6.1208 3.78609,-1.3152 12.11109,-3.3249 18.5,-4.4659 6.3889,-1.141 15.14983,-2.9743 19.46873,-4.074 9.77919,-2.4901 33.58192,-3.6569 67.64745,-3.316 28.44703,0.2847 33.77994,0.7211 48,3.928 5.775,1.3024 14.55,3.0719 19.5,3.9323 9.68337,1.6831 19.66935,4.5531 24.45755,7.0291 1.6376,0.8469 4.6465,1.8865 6.68645,2.3104 2.03995,0.4238 3.90262,1.3515 4.13927,2.0614 0.57711,1.7313 -15.18774,16.9971 -23.02019,22.2914 -3.44469,2.3285 -10.10821,7.8617 -14.80782,12.2962 -8.96238,8.4567 -27.09435,24.523 -37.39169,33.1319 -3.33496,2.7882 -9.44191,8.1882 -13.57099,12 -4.12908,3.8119 -10.09158,9.1229 -13.25,11.8022 l -5.74258,4.8714 0.0163,10.1286 c 0.0239,14.8501 1.54696,30.4681 4.35226,44.6285 l 2.47635,12.5 12.32756,11.8587 c 19.76052,19.0088 40.35602,36.0991 58.08052,48.1954 6.9118,4.7171 10.23514,7.6722 11.40817,10.1442 1.40768,2.9665 1.44463,3.6215 0.24705,4.3796 -3.80614,2.4095 -10.22334,-0.6401 -20.94119,-9.9519 -4.19456,-3.6443 -12.51283,-10.001 -18.48504,-14.126 -5.97221,-4.125 -13.70114,-10.0485 -17.1754,-13.1633 -3.47426,-3.1148 -8.45203,-6.6735 -11.0617,-7.9083 -6.91344,-3.2711 -17.10169,-9.4861 -22.07259,-13.4646 -2.38026,-1.9051 -4.71586,-3.4638 -5.19023,-3.4638 -0.47437,0 -3.80211,2.2531 -7.39498,5.0069 -3.59287,2.7538 -10.65407,7.0734 -15.69156,9.5991 -5.5588,2.7871 -11.58109,6.8135 -15.32065,10.2431 -3.38887,3.108 -10.79301,8.8009 -16.45365,12.6509 -5.66063,3.85 -14.0005,10.2135 -18.53303,14.1411 -11.33931,9.826 -17.6338,12.882 -21.49634,10.4368 z M 505.67214,1297.1001 c -12.45638,-4.3 -18.30134,-6.8805 -22.5,-9.9335 -3.11968,-2.2684 -9.09171,-6.5715 -13.27119,-9.5623 -8.54563,-6.1151 -22.39641,-21.0788 -29.53262,-31.9055 -2.60973,-3.9593 -7.74798,-14.1738 -11.41833,-22.6988 -3.67035,-8.525 -7.60527,-17.075 -8.74426,-19 -2.43516,-4.1157 -12.30244,-33.4126 -14.6509,-43.5 -2.77996,-11.9408 -3.77766,-25.821 -4.24087,-59 -0.34558,-24.7527 -0.1049,-34.7177 1.0627,-44 2.87839,-22.8827 2.87426,-22.8103 1.26787,-22.1938 -0.80188,0.3077 -5.76768,0.8758 -11.03513,1.2624 -7.09934,0.5212 -9.96942,0.3775 -11.09329,-0.5552 -2.06376,-1.7128 -1.9068,-4.2883 0.34713,-5.6959 2.11627,-1.3217 3.40658,-5.0327 2.04287,-5.8755 -1.37019,-0.8468 -1.08693,-3.5847 0.55903,-5.4035 1.27279,-1.4064 1.27846,-1.9788 0.0433,-4.3597 -2.8696,-5.5311 0.0541,-7.0726 16.4916,-8.6952 16.04404,-1.5837 51.76409,-3.0761 58.5,-2.4441 24.53545,2.302 70.7264,8.0906 84.5,10.5895 23.22061,4.2128 40.70954,9.9814 64.19758,21.175 32.66603,15.5675 49.23667,32.1119 75.31522,75.196 3.99494,6.6 8.39051,14.7 9.76794,18 4.96668,11.8991 11.61059,33.1829 13.1106,42 3.89786,22.9116 3.08985,33.6555 -3.8086,50.6425 -3.99563,9.839 -4.35331,10.3575 -7.14447,10.3575 h -2.93827 l -0.61166,-16.5 c -0.33641,-9.075 -0.67391,-17.1126 -0.75,-17.8613 -0.1907,-1.8765 -5.82581,-0.7511 -14.13834,2.8237 -19.17003,8.2442 -50.41306,16.4461 -80.21483,21.0581 -22.86218,3.538 -27.68782,3.9776 -43.5,3.9622 -21.31378,-0.021 -32.55856,-1.0987 -45.35894,-4.3479 -12.77341,-3.2424 -23.61307,-7.8686 -32.73938,-13.9726 -9.34872,-6.2528 -32.81036,-29.465 -38.18213,-37.7762 -2.2026,-3.4078 -3.99947,-5.5638 -3.99305,-4.791 0.0243,2.9218 4.92739,25.5953 6.46695,29.905 8.70853,24.3778 26.75834,52.793 46.12142,72.6074 10.44107,10.6844 25.68695,22.3436 35.75727,27.3451 6.0062,2.9831 7.14269,3.9453 7.14269,6.0475 0,4.0396 -4.31212,3.4918 -22.82786,-2.8999 z m 94.42298,-92.1275 c 4.62268,-0.5364 15.15488,-1.2191 23.40488,-1.5171 22.65783,-0.8185 31.18484,-2.6193 56.22987,-11.8749 3.42643,-1.2663 6.97063,-2.9171 7.87601,-3.6685 2.8981,-2.4052 1.19354,-13.0505 -4.94681,-30.8937 -5.52351,-16.0508 -9.08632,-22.886 -25.55032,-49.0184 -9.45268,-15.0037 -7.91902,-14.5836 -14.0211,-3.8411 -10.27711,18.0925 -19.29988,28.327 -33.58765,38.0981 -9.94875,6.8038 -13.89563,8.7861 -24,12.0541 -14.61685,4.7275 -26.93402,5.7985 -42,3.652 -20.68254,-2.9468 -39.84091,-14.3975 -54.82176,-32.7663 -6.45376,-7.9133 -17.65098,-28.8654 -20.58356,-38.5157 -2.27732,-7.494 -5.09542,-24.7052 -5.09339,-31.1072 7.2e-4,-2.2407 1.12572,-8.7151 2.5,-14.3876 1.37429,-5.6725 2.49871,-10.735 2.49871,-11.25 0,-1.3379 -22.12326,-1.0511 -30.5,0.3953 l -7,1.2088 -1.16696,4.7075 c -2.2247,8.9745 -5.333,37.4797 -5.32549,48.8382 0.0123,18.5796 3.26318,32.8749 11.49637,50.5536 9.95139,21.3681 21.28705,34.4284 38.76141,44.6586 22.74365,13.3151 40.67927,19.2253 73.23467,24.1323 5.5,0.829 11.35,1.7103 13,1.9585 4.28226,0.6441 29.65936,-0.2637 39.59512,-1.4165 z M 1092.3616,1301.5 c -1.069,-2.7858 0.5768,-4.556 6.8699,-7.3887 8.8359,-3.9774 25.6968,-16.8295 36.1135,-27.5275 18.3779,-18.874 36.5137,-47.0297 45.2592,-70.2645 2.1815,-5.7957 8.6644,-35.2893 7.9332,-36.0913 -0.1365,-0.1496 -2.0007,2.7489 -4.1427,6.4411 -5.0505,8.7055 -28.9921,32.9145 -39.4971,39.9383 -9.2083,6.1568 -20.0202,10.7774 -32.8238,14.0274 -12.8004,3.2492 -24.0452,4.3271 -45.359,4.3479 -15.8121,0.015 -20.6378,-0.4242 -43.5,-3.9622 -29.80174,-4.612 -61.04477,-12.8139 -80.2148,-21.0581 -5.96161,-2.5638 -13.82841,-4.6938 -14.12183,-3.8237 -0.067,0.1987 -0.4045,8.2363 -0.75,17.8613 L 927.5,1231.5 h -2.88352 c -2.67398,0 -3.16458,-0.6489 -6.75145,-8.9298 -7.13403,-16.4702 -8.22546,-29.6131 -4.32412,-52.0702 1.52185,-8.7601 8.14745,-29.8928 13.16803,-42 4.9972,-12.0508 24.84827,-42.9348 36.85454,-57.3376 11.67373,-14.004 26.87396,-25.4473 46.37322,-34.9117 15.7486,-7.6438 41.1719,-17.3234 50.4239,-19.1982 15.2161,-3.0833 27.8382,-5.1415 42.6394,-6.953 9.075,-1.1106 24.6,-3.035 34.5,-4.2763 14.4585,-1.8129 22.3285,-2.2213 40,-2.0757 29.3564,0.242 54.5771,2.8851 57.7435,6.0516 1.8781,1.878 1.8876,2.0712 0.2266,4.6062 -1.605,2.4495 -1.6125,2.7798 -0.1019,4.4491 1.7905,1.9784 2.1453,4.7102 0.7257,5.5876 -1.3709,0.8472 -0.099,4.4408 2.1218,5.9965 1.0815,0.7576 1.8129,2.1581 1.6254,3.1122 -0.6615,3.3649 -3.131,3.8614 -13.9906,2.8129 -5.6928,-0.5496 -10.406,-0.9687 -10.4739,-0.9314 -0.068,0.037 0.7901,5.4678 1.9065,12.0678 1.6985,10.0419 2.0724,17.3031 2.2913,44.5 0.1439,17.875 -0.1771,37.225 -0.7133,43 -2.9696,31.9818 -11.2614,56.4141 -35.5042,104.6151 -7.0402,13.9978 -22.5258,31.6373 -34.8569,39.7052 -3.85,2.5189 -9.63,6.3627 -12.8445,8.5417 -3.8111,2.5833 -11.4106,5.906 -21.8422,9.5499 -16.7583,5.8538 -20.5004,6.567 -21.4517,4.0881 z M 1068,1205.0292 c 36.7733,-5.283 54.4837,-10.9682 78.0341,-25.0496 17.4318,-10.4229 28.7543,-23.501 38.4708,-44.4358 8.278,-17.8353 11.4752,-31.8791 11.4875,-50.4577 0.01,-11.3495 -3.0966,-39.8287 -5.3254,-48.8584 l -1.167,-4.7277 -7.5,-1.1872 c -4.125,-0.653 -12.615,-1.2155 -18.8666,-1.25 -11.2736,-0.062 -11.3627,-0.044 -10.8987,2.1872 0.2573,1.2375 1.518,6.8303 2.8016,12.4283 2.2325,9.7371 2.2765,10.6692 1.0146,21.5 -1.7267,14.8207 -4.9993,25.9455 -11.1615,37.942 -7.8285,15.2404 -12.4335,21.6666 -22.5309,31.441 -17.4088,16.852 -35.9749,24.3549 -60.4248,24.4189 -12.1321,0.032 -28.6225,-3.8414 -39.4337,-9.262 -8.022,-4.0221 -21.7229,-14.2113 -27.86677,-20.7241 -6.49891,-6.8892 -15.88486,-20.3489 -20.24873,-29.0371 -1.36936,-2.7264 -2.64219,-4.957 -2.82851,-4.957 -0.53373,0 -14.10132,21.1096 -16.06807,25 -0.97315,1.925 -3.98025,6.9577 -6.68244,11.1838 C 940.88167,1143.5761 931,1172.0933 931,1182.5679 c 0,5.0049 0.96566,5.9437 9.27013,9.0127 23.90614,8.8347 34.95217,11.4262 48.72987,11.4326 4.675,0 13.675,0.4851 20,1.0731 35.8765,3.3358 41.6971,3.4288 59,0.9429 z M 675.42799,996.53045 c -0.93348,-1.42468 -6.66281,-6.938 -12.73185,-12.25185 -6.06904,-5.31384 -15.80629,-14.41287 -21.63833,-20.22006 -5.83204,-5.8072 -13.33674,-12.90566 -16.67711,-15.77437 -3.34036,-2.86871 -20.65504,-19.79005 -38.47705,-37.60299 -17.82201,-17.81294 -36.56615,-35.63787 -41.65365,-39.61097 -5.0875,-3.9731 -9.2602,-7.52675 -9.27267,-7.89701 -0.0337,-1.00205 -16.18115,-14.00621 -23.8213,-19.18427 -6.84436,-4.6387 -8.89002,-8.32223 -5.95659,-10.72573 3.6619,-3.00036 24.1166,-10.80502 37.80056,-14.42311 24.92022,-6.58901 38.69543,-8.71394 64.89356,-10.01031 C 635.25094,807.47604 634,807.0382 634,817.96736 c 0,26.2853 15.73866,96.73956 27.90874,124.93373 1.56664,3.6294 4.53288,11.77391 6.59165,18.09891 5.1048,15.68313 9.3683,25.93785 12.21903,29.38965 3.22992,3.91094 2.79026,7.99374 -0.9068,8.42073 -1.9886,0.22967 -3.12871,-0.36316 -4.38463,-2.27993 z m 262.23868,1.80288 c -1.2694,-1.26939 -0.65855,-5.07401 1.19588,-7.44847 3.25146,-4.16325 5.85263,-10.11708 10.67852,-24.44208 2.58343,-7.66853 6.63442,-18.89278 9.00222,-24.94278 5.97671,-15.27119 13.09567,-38.55756 16.50854,-54 6.23157,-28.19641 10.89146,-57.64838 10.9265,-69.05887 0.0352,-11.47796 -1.34361,-10.97074 26.12807,-9.61135 26.1982,1.29637 39.9734,3.4213 64.8936,10.01031 13.684,3.61809 34.1387,11.42275 37.8006,14.42311 2.8595,2.34295 0.8626,5.92178 -5.9346,10.63588 -8.2638,5.73122 -23.866,18.23779 -23.866,19.13075 0,0.36556 -3.9749,3.84297 -8.833,7.72758 -11.1398,8.90739 -32.5398,29.40731 -55.3941,53.06399 -9.7499,10.09223 -20.7012,20.78732 -24.33618,23.76686 -3.63499,2.97955 -11.19912,10.02969 -16.80916,15.667 -5.61005,5.63731 -15.41945,14.86094 -21.79867,20.49697 -6.37922,5.63603 -12.33577,11.37242 -13.23679,12.74755 -1.5501,2.36575 -5.3794,3.37959 -6.92543,1.83355 z M 1234.2961,398.72667 c 5.5142,-4.31095 3.6888,-4.62002 -2.1166,-0.3584 -6.0498,4.44093 -9.4131,8.1868 -4.6795,5.21169 1.65,-1.03703 4.7083,-3.22101 6.7961,-4.85329 z M 1205.3965,360.25 c 1.4505,-2.8875 2.4122,-5.25 2.1372,-5.25 -0.5638,0 -5.5337,9.54997 -5.5337,10.63342 0,1.13204 0.607,0.16993 3.3965,-5.38342 z M 1232,351.29422 c 0,-2.36356 -2.4679,-0.85802 -2.846,1.73626 -0.3022,2.07253 -0.1435,2.2057 1.25,1.04923 0.8778,-0.72853 1.596,-1.982 1.596,-2.78549 z"
       id="path162" />
  </g>
</svg>
